<svg width="24" height="14" viewBox="0 0 24 14" fill="none" xmlns="http://www.w3.org/2000/svg">
<path opacity="0.6" d="M12 11.1H10.5V12.1808L11.5253 12.5229L12 11.1ZM12.4496 11.25L12.9243 9.8271L12.4496 11.25ZM12.0374 11.6L11.6983 10.1388L12.0374 11.6ZM11.3279 11.85L11.7957 10.4248L11.3279 11.85ZM11.6326 11.95L12.1004 10.5248L11.6326 11.95ZM11.8924 12V13.5H12.482L12.9138 13.0985L11.8924 12ZM12 11.9H13.5V8.45711L10.9786 10.8015L12 11.9ZM10.9393 13.0607C11.5251 13.6464 12.4749 13.6464 13.0607 13.0607L22.6066 3.51472C23.1924 2.92893 23.1924 1.97919 22.6066 1.3934C22.0208 0.807611 21.0711 0.807611 20.4853 1.3934L12 9.87868L3.51472 1.3934C2.92893 0.807611 1.97919 0.807611 1.3934 1.3934C0.807611 1.97919 0.807611 2.92893 1.3934 3.51472L10.9393 13.0607ZM12 11H10.5V11.1H12H13.5V11H12ZM12 11.1L11.5253 12.5229L11.9749 12.6729L12.4496 11.25L12.9243 9.8271L12.4747 9.6771L12 11.1ZM12.4496 11.25L11.9749 12.6729C12.0126 12.6855 11.9489 12.6688 11.8484 12.6086C11.7987 12.5788 11.6787 12.5026 11.5535 12.3649C11.4296 12.2287 11.216 11.937 11.1833 11.4994C11.1479 11.0267 11.3424 10.6615 11.5237 10.4477C11.685 10.2575 11.853 10.1606 11.9225 10.1236C12.0627 10.0487 12.162 10.0312 12.1292 10.0388L12.4683 11.5L12.8074 12.9612C12.9183 12.9354 13.1245 12.8826 13.335 12.7702C13.4103 12.73 14.2508 12.2899 14.1749 11.2756C14.1406 10.8172 13.9163 10.5041 13.7725 10.346C13.6274 10.1865 13.4783 10.0879 13.3904 10.0352C13.2134 9.92913 13.0365 9.86452 12.9243 9.8271L12.4496 11.25ZM12.4683 11.5L12.1292 10.0388L11.6983 10.1388L12.0374 11.6L12.3765 13.0612L12.8074 12.9612L12.4683 11.5ZM12.0374 11.6L11.6983 10.1388L11.2674 10.2388L11.6065 11.7L11.9456 13.1612L12.3765 13.0612L12.0374 11.6ZM11.6065 11.7L11.2674 10.2388C11.1475 10.2666 10.8596 10.3325 10.6103 10.4668C10.5392 10.505 10.377 10.5974 10.2166 10.7635C10.0654 10.9202 9.7301 11.3432 9.79628 11.9775C9.86137 12.6015 10.2656 12.943 10.432 13.0608C10.6142 13.1899 10.7845 13.2504 10.8601 13.2752L11.3279 11.85L11.7957 10.4248C11.8459 10.4413 11.9969 10.4929 12.1658 10.6126C12.319 10.7211 12.7161 11.0527 12.7801 11.6662C12.8452 12.2902 12.5149 12.7022 12.3747 12.8474C12.2254 13.0021 12.0803 13.0825 12.0325 13.1082C11.876 13.1925 11.7782 13.2 11.9456 13.1612L11.6065 11.7ZM11.3279 11.85L10.8601 13.2752L11.0124 13.3252L11.4802 11.9L11.948 10.4748L11.7957 10.4248L11.3279 11.85ZM11.4802 11.9L11.0124 13.3252L11.1648 13.3752L11.6326 11.95L12.1004 10.5248L11.948 10.4748L11.4802 11.9ZM11.6326 11.95L11.1648 13.3752C11.2363 13.3987 11.3197 13.4241 11.4066 13.4452C11.4678 13.4601 11.6358 13.5 11.8387 13.5V12V10.5C11.9364 10.5 12.0098 10.5105 12.0418 10.5156C12.0787 10.5215 12.1042 10.5274 12.1139 10.5298C12.1321 10.5342 12.1304 10.5347 12.1004 10.5248L11.6326 11.95ZM11.8387 12V13.5H11.8924V12V10.5H11.8387V12ZM11.8924 12L12.9138 13.0985L13.0214 12.9985L12 11.9L10.9786 10.8015L10.8711 10.9015L11.8924 12ZM12 11.9H10.5V12H12H13.5V11.9H12Z" fill="white"/>
</svg>
