<svg width="17" height="13" viewBox="0 0 17 13" fill="none" xmlns="http://www.w3.org/2000/svg">
<path fill-rule="evenodd" clip-rule="evenodd" d="M0 3.25C0 1.45507 1.52223 0 3.4 0H13.6C15.4777 0 17 1.45507 17 3.25V3.65625C17 3.88061 16.8097 4.0625 16.575 4.0625H0.425C0.190281 4.0625 0 3.88061 0 3.65625V3.25ZM0.425 5.6875C0.190281 5.6875 0 5.86942 0 6.09375V9.75C0 11.5449 1.52223 13 3.4 13H13.6C15.4777 13 17 11.5449 17 9.75V6.09375C17 5.86942 16.8097 5.6875 16.575 5.6875H0.425ZM9.35 8.9375C9.35 8.48876 9.73055 8.125 10.2 8.125H12.75C13.2195 8.125 13.6 8.48876 13.6 8.9375C13.6 9.38624 13.2195 9.75 12.75 9.75H10.2C9.73055 9.75 9.35 9.38624 9.35 8.9375Z" fill="#1A1A1A"/>
</svg>
