<svg width="21" height="14" viewBox="0 0 21 14" fill="none" xmlns="http://www.w3.org/2000/svg">
<path d="M0 12.6C0 13.37 0.63 14 1.4 14H19.6C20.37 14 21 13.37 21 12.6V4.2H0V12.6ZM2.1 9.1H10.5C10.8864 9.1 11.2 9.4136 11.2 9.8C11.2 10.1864 10.8864 10.5 10.5 10.5H2.1C1.7136 10.5 1.4 10.1864 1.4 9.8C1.4 9.4136 1.7136 9.1 2.1 9.1ZM2.1 11.2H5.6C5.9864 11.2 6.3 11.5136 6.3 11.9C6.3 12.2864 5.9864 12.6 5.6 12.6H2.1C1.7136 12.6 1.4 12.2864 1.4 11.9C1.4 11.5136 1.7136 11.2 2.1 11.2ZM21 1.4V2.1H0V1.4C0 0.63 0.63 0 1.4 0H19.6C20.37 0 21 0.63 21 1.4Z" fill="#AFA3FD"/>
</svg>
