<svg width="16" height="16" viewBox="0 0 16 16" fill="none" xmlns="http://www.w3.org/2000/svg">
<path fill-rule="evenodd" clip-rule="evenodd" d="M4.44444 1.77778H11.3733C12.3644 1.77778 12.7236 1.88089 13.0853 2.07467C13.4471 2.26844 13.7316 2.55289 13.9253 2.91467C14.1191 3.27644 14.2222 3.63556 14.2222 4.62667V11.5556C14.2222 11.7913 14.3159 12.0174 14.4826 12.1841C14.6493 12.3508 14.8754 12.4444 15.1111 12.4444C15.3469 12.4444 15.573 12.3508 15.7397 12.1841C15.9064 12.0174 16 11.7913 16 11.5556V4.55822C16 2.97333 15.8347 2.39822 15.5253 1.81867C15.2222 1.24605 14.754 0.777786 14.1813 0.474667C13.6018 0.165333 13.0267 0 11.4418 0H4.44444C4.2087 0 3.9826 0.0936505 3.81591 0.260349C3.64921 0.427048 3.55556 0.653141 3.55556 0.888889C3.55556 1.12464 3.64921 1.35073 3.81591 1.51743C3.9826 1.68413 4.2087 1.77778 4.44444 1.77778ZM11.3076 3.85244C10.9458 3.65867 10.5867 3.55556 9.59556 3.55556H2.84889C1.85778 3.55556 1.49867 3.65867 1.13689 3.85244C0.779008 4.0419 0.486344 4.33456 0.296889 4.69244C0.103111 5.05422 0 5.41333 0 6.40444V13.1511C0 14.1413 0.103111 14.5013 0.296889 14.8631C0.490667 15.2249 0.775111 15.5093 1.13689 15.7031C1.49867 15.8969 1.85778 16 2.84889 16H9.59556C10.5858 16 10.9458 15.8969 11.3076 15.7031C11.6693 15.5093 11.9538 15.2249 12.1476 14.8631C12.3413 14.5013 12.4444 14.1422 12.4444 13.1511V6.40444C12.4444 5.41333 12.3413 5.05422 12.1476 4.69244C11.9581 4.33456 11.6654 4.0419 11.3076 3.85244Z" fill="#AFA3FD"/>
</svg>
