<svg width="20" height="20" viewBox="0 0 20 20" fill="none" xmlns="http://www.w3.org/2000/svg">
<circle cx="10" cy="10" r="10" fill="#D9D9D9"/>
<path d="M9.4 11.85V5.2H10.94V11.85H9.4ZM10.17 15.154C9.96467 15.154 9.77333 15.1027 9.596 15C9.428 14.9067 9.29267 14.776 9.19 14.608C9.09667 14.4307 9.05 14.2393 9.05 14.034C9.05 13.7073 9.15733 13.4413 9.372 13.236C9.58667 13.0213 9.85267 12.914 10.17 12.914C10.4873 12.914 10.7533 13.0213 10.968 13.236C11.1827 13.4413 11.29 13.7073 11.29 14.034C11.29 14.2393 11.2387 14.4307 11.136 14.608C11.0427 14.776 10.912 14.9067 10.744 15C10.576 15.1027 10.3847 15.154 10.17 15.154Z" fill="black"/>
</svg>
