<svg width="14" height="14" viewBox="0 0 14 14" fill="none" xmlns="http://www.w3.org/2000/svg">
<path fill-rule="evenodd" clip-rule="evenodd" d="M2.25867 2.25866C3.36975 1.14757 5.17668 1.14757 6.28776 2.25866L7.29486 3.26576L8.30196 2.25866L7.29486 1.25157C5.6261 -0.41719 2.92033 -0.41719 1.25157 1.25157C-0.41719 2.92033 -0.41719 5.6261 1.25157 7.29486L2.25867 8.30197L3.26577 7.29486L2.25867 6.28776C1.14759 5.17668 1.14759 3.36974 2.25867 2.25866ZM12.7484 6.70514L11.7413 5.69733L10.7342 6.70514L11.7413 7.71224C12.8517 8.82261 12.8517 10.6303 11.7413 11.7413C10.6302 12.8517 8.82261 12.8517 7.71224 11.7413L6.70514 10.7335L5.69733 11.7413L6.70514 12.7484C8.3739 14.4172 11.0797 14.4172 12.7484 12.7484C14.4172 11.0797 14.4172 8.3739 12.7484 6.70514ZM3.76931 2.76221L11.2378 10.23L10.23 11.2378L2.76221 3.76931L3.76931 2.76221Z" fill="white"/>
</svg>
