<svg width="20" height="19" viewBox="0 0 20 19" fill="none" xmlns="http://www.w3.org/2000/svg">
<path d="M16.6494 0.75C17.8091 0.75 18.7498 1.68998 18.75 2.84961C18.75 4.00942 17.8093 4.9502 16.6494 4.9502C15.4898 4.94997 14.5498 4.00929 14.5498 2.84961C14.55 1.69012 15.4899 0.750222 16.6494 0.75Z" fill="#AFA3FD" stroke="#1A1A1A" stroke-width="1.5"/>
<path d="M13.4544 0.0104122C12.8606 9.73239e-08 12.1899 0 11.4251 0H8.57506C5.46528 0 3.91038 -5.66248e-08 2.76815 0.699965C2.129 1.09163 1.59163 1.629 1.19996 2.26815C0.5 3.41038 0.5 4.96528 0.5 8.07506V9.02506C0.5 11.2383 0.5 12.345 0.861573 13.2178C1.34367 14.3818 2.26838 15.3064 3.43227 15.7885C4.05957 16.0484 4.80754 16.1214 6.00014 16.142C6.80797 16.1559 7.21188 16.1628 7.5327 16.3494C7.85352 16.5361 8.05325 16.8734 8.45269 17.5483L8.96769 18.4184C9.42674 19.1939 10.5734 19.1939 11.0324 18.4184L11.5474 17.5483C11.9468 16.8734 12.1466 16.536 12.4674 16.3494C12.7882 16.1628 13.1921 16.1559 14 16.142C15.1926 16.1214 15.9406 16.0484 16.5678 15.7885C17.7318 15.3064 18.6564 14.3818 19.1386 13.2178C19.5001 12.345 19.5001 11.2383 19.5001 9.02506V8.07506C19.5001 7.31024 19.5001 6.63949 19.4897 6.04579C18.7346 6.71719 17.7401 7.12505 16.6501 7.12505C14.2891 7.12505 12.3751 5.21105 12.3751 2.85002C12.3751 1.76012 12.7829 0.765487 13.4544 0.0104122Z" fill="#1A1A1A"/>
</svg>
