<svg width="13" height="14" viewBox="0 0 13 14" fill="none" xmlns="http://www.w3.org/2000/svg">
<path fill-rule="evenodd" clip-rule="evenodd" d="M0.937042 10.6524L0.0327338 13.2493C-0.00199118 13.3493 -0.00927005 13.4579 0.0117667 13.5622C0.0328035 13.6664 0.0812667 13.762 0.151368 13.8374C0.22147 13.9128 0.310247 13.9649 0.407097 13.9874C0.503948 14.01 0.604778 14.002 0.697545 13.9645L3.10835 12.9907C3.38428 12.8794 3.6349 12.7058 3.84336 12.4815L10.8266 4.96119C10.8266 4.96119 10.583 4.17484 9.8535 3.38849C9.12399 2.60288 8.39312 2.34052 8.39312 2.34052L1.40984 9.86086C1.2016 10.0854 1.04039 10.3552 0.937042 10.6524ZM9.36693 1.29181L10.3187 0.266814C10.4894 0.0830113 10.7172 -0.0340887 10.9553 0.00889733C11.2905 0.0681885 11.8032 0.247544 12.2863 0.768565C12.7701 1.28959 12.9367 1.84099 12.9917 2.20193C13.0317 2.45836 12.9229 2.70368 12.7522 2.88748L11.7998 3.91248C11.7998 3.91248 11.5568 3.12687 10.8266 2.34126C10.0971 1.55417 9.36693 1.29181 9.36693 1.29181Z" fill="#312E40"/>
</svg>
