<svg width="40" height="31" viewBox="0 0 40 31" fill="none" xmlns="http://www.w3.org/2000/svg">
<path opacity="0.65" fill-rule="evenodd" clip-rule="evenodd" d="M0 7.75C0 3.46979 3.58172 0 8 0H32C36.4182 0 40 3.46979 40 7.75V8.71875C40 9.25377 39.5522 9.6875 39 9.6875H1C0.44772 9.6875 0 9.25377 0 8.71875V7.75ZM1 13.5625C0.44772 13.5625 0 13.9963 0 14.5312V23.25C0 27.5301 3.58172 31 8 31H32C36.4182 31 40 27.5301 40 23.25V14.5312C40 13.9963 39.5522 13.5625 39 13.5625H1ZM22 21.3125C22 20.2424 22.8954 19.375 24 19.375H30C31.1046 19.375 32 20.2424 32 21.3125C32 22.3826 31.1046 23.25 30 23.25H24C22.8954 23.25 22 22.3826 22 21.3125Z" fill="#AFA3FD"/>
</svg>
