<svg width="20" height="20" viewBox="0 0 20 20" fill="none" xmlns="http://www.w3.org/2000/svg">
<path opacity="0.6" d="M9.99969 0C4.47736 0 0 4.47688 0 10C0 15.5231 4.47674 20 9.99969 20C15.5226 20 20 15.5231 20 10C20 4.47688 15.5233 0 9.99969 0ZM9.99969 18.77C5.17484 18.77 1.24996 14.825 1.24996 10C1.24996 5.175 5.17484 1.25 9.99969 1.25C14.8245 1.25 18.75 5.175 18.75 10C18.75 14.825 14.8245 18.77 9.99969 18.77ZM9.08097 15.6344H10.6534V14.0475H9.08097V15.6344ZM9.98094 4.36562C9.06534 4.36562 8.31099 4.6125 7.71851 5.10562C7.12603 5.59875 6.83791 6.58687 6.85229 7.40562L6.87541 7.45125H8.30974C8.30974 6.96313 8.47286 6.26125 8.79785 6.00875C9.12284 5.75625 9.51783 5.63125 9.98094 5.63125C10.5147 5.63125 10.9253 5.77625 11.2128 6.06625C11.5003 6.35625 11.6434 6.77062 11.6434 7.30937C11.6434 7.7625 11.5371 8.14875 11.3234 8.46875C11.109 8.78875 10.7509 9.24687 10.2478 9.8425C9.72845 10.3106 9.40783 10.6869 9.28659 10.9713C9.16534 11.2556 9.10097 11.7675 9.09597 12.505H10.599C10.599 12.0425 10.6284 11.7019 10.6865 11.4825C10.7447 11.2631 10.9115 11.0175 11.1859 10.7425C11.7765 10.1731 12.2502 9.61625 12.609 9.07125C12.9671 8.5275 13.1465 7.92688 13.1465 7.27063C13.1465 6.355 12.8696 5.64125 12.3146 5.13062C11.7596 4.62 10.9809 4.36438 9.97969 4.36438L9.98094 4.36562Z" fill="white"/>
</svg>
