<svg width="14" height="14" viewBox="0 0 14 14" fill="none" xmlns="http://www.w3.org/2000/svg">
<path d="M5.92021 11.8404C6.93715 11.8414 7.93695 11.5786 8.82202 11.0778L11.2773 13.5329C11.5764 13.832 11.9821 14 12.4051 14C12.8281 14 13.2337 13.832 13.5329 13.5329C13.832 13.2338 14 12.8282 14 12.4052C14 11.9822 13.832 11.5766 13.5329 11.2775L11.0776 8.82246C11.7797 7.57602 12.0066 6.11746 11.7161 4.71669C11.4257 3.31591 10.6376 2.06774 9.49781 1.20315C8.35798 0.338553 6.94353 -0.0839394 5.5162 0.0138508C4.08886 0.111641 2.74526 0.723094 1.73402 1.73506C0.906057 2.56293 0.342202 3.6177 0.113763 4.766C-0.114676 5.9143 0.002561 7.10455 0.450648 8.18622C0.898735 9.2679 1.65755 10.1924 2.63112 10.8429C3.6047 11.4933 4.74931 11.8405 5.92021 11.8404ZM2.77596 2.77692C3.50336 2.04991 4.46034 1.59758 5.48387 1.49699C6.5074 1.39639 7.53414 1.65376 8.38918 2.22524C9.24422 2.79671 9.87464 3.64695 10.1731 4.63108C10.4715 5.61521 10.4194 6.67236 10.0257 7.62241C9.63203 8.57246 8.9211 9.35663 8.01404 9.84133C7.10698 10.326 6.05991 10.4813 5.05122 10.2806C4.04254 10.0799 3.13463 9.53573 2.4822 8.74078C1.82977 7.94582 1.47318 6.94926 1.47317 5.92089C1.47138 5.3367 1.58562 4.75797 1.80926 4.21827C2.0329 3.67857 2.36149 3.18865 2.77596 2.77692Z" fill="#AFA3FD"/>
</svg>
