<svg width="36" height="19" viewBox="0 0 36 19" fill="none" xmlns="http://www.w3.org/2000/svg">
<path d="M30.0288 2.53336C31.7547 2.53336 33.1538 3.95112 33.1538 5.7C33.1538 7.44888 31.7547 8.86664 30.0288 8.86664C28.3029 8.86664 26.9038 7.44888 26.9038 5.7C26.9038 3.95112 28.3029 2.53336 30.0288 2.53336ZM5.02883 1.26664C7.44509 1.26664 9.40385 3.25152 9.40385 5.7L9.38001 6.16504L18.6393 11.0308C19.3729 10.4675 20.2874 10.1334 21.2788 10.1334L24.4038 5.7C24.4038 2.552 26.9222 0 30.0288 0C33.1354 0 35.6538 2.552 35.6538 5.7C35.6538 8.848 33.1354 11.4 30.0288 11.4L25.6538 14.5666C25.6538 17.0151 23.695 19 21.2788 19C18.8625 19 16.9038 17.0151 16.9038 14.5666C16.9038 14.5112 16.9048 14.4559 16.9068 14.4009L7.41809 9.41448C6.73117 9.86912 5.91043 10.1334 5.02883 10.1334C2.61257 10.1334 0.653809 8.14848 0.653809 5.7C0.653809 3.25152 2.61257 1.26664 5.02883 1.26664ZM22.577 13.1002C23.4996 13.5766 23.8665 14.7207 23.3964 15.6557C22.9263 16.5906 21.7972 16.9624 20.8746 16.486L18.1942 15.0774C18.4353 16.5835 19.7245 17.7334 21.2788 17.7334C23.0047 17.7334 24.4038 16.3156 24.4038 14.5666C24.4038 12.8178 23.0046 11.4 21.2788 11.4C20.7959 11.4 20.3385 11.511 19.9302 11.7093L22.577 13.1002ZM5.02883 2.53336C3.30296 2.53336 1.90386 3.95112 1.90386 5.7C1.90386 7.44888 3.30296 8.86664 5.02883 8.86664C5.38567 8.86664 5.72854 8.80608 6.04796 8.69448L3.97323 7.60416C3.05057 7.12776 2.6837 5.98368 3.15383 5.04872C3.62396 4.11376 4.75299 3.742 5.67572 4.2184L8.14875 5.518C8.05567 3.85376 6.69438 2.53336 5.02883 2.53336ZM30.0288 1.26664C27.6126 1.26664 25.6538 3.25152 25.6538 5.7C25.6538 8.14848 27.6126 10.1334 30.0288 10.1334C32.445 10.1334 34.4038 8.14848 34.4038 5.7C34.4038 3.25152 32.445 1.26664 30.0288 1.26664Z" fill="#1A1A1A"/>
</svg>
