<svg width="23" height="12" viewBox="0 0 23 12" fill="none" xmlns="http://www.w3.org/2000/svg">
<path d="M18.5526 1.60002C19.6427 1.60002 20.5263 2.49544 20.5263 3.6C20.5263 4.70456 19.6427 5.59998 18.5526 5.59998C17.4626 5.59998 16.5789 4.70456 16.5789 3.6C16.5789 2.49544 17.4626 1.60002 18.5526 1.60002ZM2.76317 0.799983C4.28923 0.799983 5.52634 2.05359 5.52634 3.6L5.51128 3.89371L11.3592 6.96682C11.8226 6.61107 12.4001 6.40002 13.0263 6.40002L15 3.6C15 1.61179 16.5905 0 18.5526 0C20.5147 0 22.1053 1.61179 22.1053 3.6C22.1053 5.58821 20.5147 7.2 18.5526 7.2L15.7895 9.19998C15.7895 10.7464 14.5524 12 13.0263 12C11.5002 12 10.2632 10.7464 10.2632 9.19998C10.2632 9.16497 10.2638 9.13005 10.2651 9.09529L4.27218 5.94599C3.83833 6.23313 3.31997 6.40002 2.76317 6.40002C1.23711 6.40002 0 5.14641 0 3.6C0 2.05359 1.23711 0.799983 2.76317 0.799983ZM13.8462 8.27378C14.4289 8.57467 14.6607 9.2973 14.3637 9.8878C14.0669 10.4783 13.3537 10.7131 12.771 10.4122L11.0782 9.52259C11.2304 10.4738 12.0447 11.2 13.0263 11.2C14.1164 11.2 15 10.3046 15 9.19998C15 8.09543 14.1163 7.2 13.0263 7.2C12.7213 7.2 12.4324 7.27013 12.1746 7.39533L13.8462 8.27378ZM2.76317 1.60002C1.67315 1.60002 0.789506 2.49544 0.789506 3.6C0.789506 4.70456 1.67315 5.59998 2.76317 5.59998C2.98854 5.59998 3.20509 5.56173 3.40683 5.49125L2.09647 4.80263C1.51374 4.50174 1.28204 3.77917 1.57896 3.18867C1.87589 2.59817 2.58896 2.36337 3.17174 2.66425L4.73364 3.48505C4.67486 2.43395 3.8151 1.60002 2.76317 1.60002ZM18.5526 0.799983C17.0266 0.799983 15.7895 2.05359 15.7895 3.6C15.7895 5.14641 17.0266 6.40002 18.5526 6.40002C20.0786 6.40002 21.3158 5.14641 21.3158 3.6C21.3158 2.05359 20.0786 0.799983 18.5526 0.799983Z" fill="#AFA3FD"/>
</svg>
