<svg width="22" height="18" viewBox="0 0 22 18" fill="none" xmlns="http://www.w3.org/2000/svg">
<path d="M20.1244 0.158909C20.1244 0.158909 22.1596 -0.620233 21.99 1.27197C21.9334 2.05112 21.4247 4.77812 21.0289 7.72775L19.6722 16.4653C19.6722 16.4653 19.5591 17.7453 18.5415 17.9679C17.5239 18.1905 15.9976 17.1888 15.7149 16.9662C15.4887 16.7992 11.475 14.2948 10.0617 13.0705C9.66592 12.7365 9.21366 12.0687 10.1182 11.2895L16.0541 5.72425C16.7325 5.0564 17.4109 3.49812 14.5842 5.39033L6.66972 10.6774C6.66972 10.6774 5.76521 11.2339 4.06927 10.733L0.394649 9.61997C0.394649 9.61997 -0.962128 8.78518 1.3557 7.95034C7.00894 5.33463 13.9624 2.66328 20.1244 0.158909Z" fill="white"/>
</svg>
