<svg width="12" height="12" viewBox="0 0 12 12" fill="none" xmlns="http://www.w3.org/2000/svg">
<path d="M5.46967 6.53033C5.76256 6.82322 6.23744 6.82322 6.53033 6.53033L11.3033 1.75736C11.5962 1.46447 11.5962 0.989592 11.3033 0.696699C11.0104 0.403806 10.5355 0.403806 10.2426 0.696699L6 4.93934L1.75736 0.696699C1.46447 0.403806 0.989592 0.403806 0.696699 0.696699C0.403806 0.989592 0.403806 1.46447 0.696699 1.75736L5.46967 6.53033ZM6 5H5.25V6H6H6.75V5H6Z" fill="white"/>
<path d="M5.46967 11.5303C5.76256 11.8232 6.23744 11.8232 6.53033 11.5303L11.3033 6.75736C11.5962 6.46447 11.5962 5.98959 11.3033 5.6967C11.0104 5.40381 10.5355 5.40381 10.2426 5.6967L6 9.93934L1.75736 5.6967C1.46447 5.40381 0.989592 5.40381 0.696699 5.6967C0.403806 5.98959 0.403806 6.46447 0.696699 6.75736L5.46967 11.5303ZM6 10H5.25V11H6H6.75V10H6Z" fill="white"/>
</svg>
