<svg width="17" height="17" viewBox="0 0 17 17" fill="none" xmlns="http://www.w3.org/2000/svg">
<path fill-rule="evenodd" clip-rule="evenodd" d="M16.5 2.68182C16.5 1.47684 15.5232 0.5 14.3182 0.5H2.68182C1.47684 0.5 0.5 1.47684 0.5 2.68182V9.95454C0.5 11.1596 1.47684 12.1364 2.68182 12.1364H3.40909C3.81075 12.1364 4.13636 11.8108 4.13636 11.4091C4.13636 11.0074 3.81075 10.6818 3.40909 10.6818H2.68182C2.28016 10.6818 1.95454 10.3562 1.95454 9.95454V5.59091H15.0454V9.95454C15.0454 10.3562 14.7198 10.6818 14.3182 10.6818H13.5909C13.1892 10.6818 12.8636 11.0074 12.8636 11.4091C12.8636 11.8108 13.1892 12.1364 13.5909 12.1364H14.3182C15.5232 12.1364 16.5 11.1596 16.5 9.95454V2.68182ZM15.0454 4.13636V2.68182C15.0454 2.28016 14.7198 1.95454 14.3182 1.95454H2.68182C2.28016 1.95454 1.95454 2.28015 1.95454 2.68182V4.13636H15.0454Z" fill="#1A1A1A"/>
<path d="M9.22717 15.7727C9.22717 16.1744 8.90157 16.5 8.4999 16.5C8.09823 16.5 7.77263 16.1744 7.77263 15.7727V11.705L6.83237 12.6452C6.54831 12.9293 6.08787 12.9293 5.80382 12.6452C5.51982 12.3613 5.51982 11.9007 5.80382 11.6168L7.98528 9.43986C8.26935 9.15629 8.72943 9.15658 9.01328 9.44037L11.1944 11.6216C11.4785 11.9057 11.4785 12.3661 11.1944 12.6502C10.9104 12.9341 10.4499 12.9341 10.1659 12.6502L9.22717 11.7114V15.7727Z" fill="#1A1A1A"/>
</svg>
