<svg width="29" height="20" viewBox="0 0 29 20" fill="none" xmlns="http://www.w3.org/2000/svg">
<path fill-rule="evenodd" clip-rule="evenodd" d="M11.2024 13.6884L11.2015 5.69892L18.8303 9.70746L11.2024 13.6884ZM27.9529 4.31446C27.9529 4.31446 27.6768 2.35507 26.8306 1.49223C25.7568 0.35925 24.5532 0.353908 24.0018 0.288151C20.0506 0.000239968 14.1238 0.000244141 14.1238 0.000244141H14.1115C14.1115 0.000244141 8.18471 0.000239968 4.23353 0.288151C3.68118 0.353908 2.47853 0.35925 1.40383 1.49223C0.55765 2.35507 0.28235 4.31446 0.28235 4.31446C0.28235 4.31446 0 6.61597 0 8.91658V11.0741C0 13.3756 0.28235 15.6763 0.28235 15.6763C0.28235 15.6763 0.55765 17.6357 1.40383 18.4985C2.47853 19.6315 3.88941 19.5959 4.51764 19.7141C6.77647 19.9327 14.1176 20.0002 14.1176 20.0002C14.1176 20.0002 20.0506 19.9914 24.0018 19.7035C24.5532 19.6368 25.7568 19.6315 26.8306 18.4985C27.6768 17.6357 27.9529 15.6763 27.9529 15.6763C27.9529 15.6763 28.2353 13.3756 28.2353 11.0741V8.91658C28.2353 6.61597 27.9529 4.31446 27.9529 4.31446Z" fill="#CE1312"/>
</svg>
